<mxfile host="app.diagrams.net" modified="2023-09-19T12:18:14.255Z" agent="Mozilla/5.0 (X11; Linux x86_64) AppleWebKit/537.36 (KHTML, like Gecko) Chrome/117.0.0.0 Safari/537.36" version="21.7.5" etag="OGyg0H7kM-cJt0mfKVBH" type="github">
  <diagram name="Page-1" id="81KsTkNA9Iox6jin45h6">
    <mxGraphModel>
      <root>
        <mxCell id="0" />
        <mxCell id="1" parent="0" />
      </root>
    </mxGraphModel>
  </diagram>
</mxfile>
